<?xml version="1.0" encoding="UTF-8"?>
<svg xmlns="http://www.w3.org/2000/svg" xmlns:xlink="http://www.w3.org/1999/xlink" width="51pt" height="51pt" viewBox="0 0 51 51" version="1.1">
<g id="surface1">
<path style=" stroke:none;fill-rule:nonzero;fill:rgb(0%,0%,0%);fill-opacity:1;" d="M 9.328125 51 L 41.625 51 C 43.03125 51 44.175781 49.859375 44.175781 48.449219 L 44.175781 7.652344 C 44.175781 6.246094 43.03125 5.105469 41.625 5.105469 L 35.519531 5.105469 C 35.160156 4.089844 34.203125 3.410156 33.125 3.402344 L 29.640625 3.402344 C 29.238281 1.421875 27.496094 0 25.476562 0 C 23.453125 0 21.714844 1.421875 21.3125 3.402344 L 17.824219 3.402344 C 16.75 3.410156 15.792969 4.089844 15.433594 5.105469 L 9.328125 5.105469 C 8.652344 5.105469 8.003906 5.371094 7.523438 5.851562 C 7.046875 6.328125 6.777344 6.976562 6.777344 7.652344 L 6.777344 48.449219 C 6.777344 49.859375 7.917969 51 9.328125 51 Z M 15.433594 10.203125 C 15.792969 11.21875 16.75 11.898438 17.824219 11.902344 L 33.125 11.902344 C 34.203125 11.898438 35.160156 11.21875 35.519531 10.203125 L 39.074219 10.203125 L 39.074219 45.902344 L 11.875 45.902344 L 11.875 10.203125 Z M 25.476562 1.703125 C 26.550781 1.707031 27.511719 2.390625 27.867188 3.402344 L 23.082031 3.402344 C 23.441406 2.390625 24.398438 1.707031 25.476562 1.703125 Z M 17.824219 5.105469 L 33.125 5.105469 C 33.59375 5.105469 33.976562 5.484375 33.976562 5.953125 L 33.976562 9.355469 C 33.976562 9.824219 33.59375 10.203125 33.125 10.203125 L 17.824219 10.203125 C 17.355469 10.203125 16.976562 9.824219 16.976562 9.355469 L 16.976562 5.953125 C 16.976562 5.484375 17.355469 5.105469 17.824219 5.105469 Z M 8.476562 7.652344 C 8.476562 7.183594 8.859375 6.804688 9.328125 6.804688 L 15.277344 6.804688 L 15.277344 8.503906 L 11.875 8.503906 C 10.9375 8.503906 10.175781 9.265625 10.175781 10.203125 L 10.175781 45.902344 C 10.175781 46.839844 10.9375 47.601562 11.875 47.601562 L 39.074219 47.601562 C 40.011719 47.601562 40.773438 46.839844 40.773438 45.902344 L 40.773438 10.203125 C 40.773438 9.265625 40.011719 8.503906 39.074219 8.503906 L 35.675781 8.503906 L 35.675781 6.804688 L 41.625 6.804688 C 42.09375 6.804688 42.472656 7.183594 42.472656 7.652344 L 42.472656 48.449219 C 42.472656 48.917969 42.09375 49.300781 41.625 49.300781 L 9.328125 49.300781 C 8.859375 49.300781 8.476562 48.917969 8.476562 48.449219 Z M 8.476562 7.652344 "/>
<path style=" stroke:none;fill-rule:nonzero;fill:rgb(0%,0%,0%);fill-opacity:1;" d="M 19.527344 8.503906 L 21.226562 8.503906 C 21.695312 8.503906 22.074219 8.121094 22.074219 7.652344 C 22.074219 7.183594 21.695312 6.804688 21.226562 6.804688 L 19.527344 6.804688 C 19.058594 6.804688 18.675781 7.183594 18.675781 7.652344 C 18.675781 8.121094 19.058594 8.503906 19.527344 8.503906 Z M 19.527344 8.503906 "/>
<path style=" stroke:none;fill-rule:nonzero;fill:rgb(0%,0%,0%);fill-opacity:1;" d="M 24.625 8.503906 L 31.425781 8.503906 C 31.894531 8.503906 32.273438 8.121094 32.273438 7.652344 C 32.273438 7.183594 31.894531 6.804688 31.425781 6.804688 L 24.625 6.804688 C 24.15625 6.804688 23.777344 7.183594 23.777344 7.652344 C 23.777344 8.121094 24.15625 8.503906 24.625 8.503906 Z M 24.625 8.503906 "/>
<path style=" stroke:none;fill-rule:nonzero;fill:rgb(0%,0%,0%);fill-opacity:1;" d="M 15.277344 25.503906 C 15.277344 25.03125 14.894531 24.652344 14.425781 24.652344 C 13.957031 24.652344 13.578125 25.03125 13.578125 25.503906 C 13.578125 27.601562 15.417969 29.347656 17.824219 29.6875 L 17.824219 29.75 C 17.824219 30.222656 18.207031 30.601562 18.675781 30.601562 C 19.144531 30.601562 19.527344 30.222656 19.527344 29.75 L 19.527344 29.6875 C 21.933594 29.347656 23.777344 27.601562 23.777344 25.503906 C 23.777344 23.402344 21.933594 21.65625 19.527344 21.316406 L 19.527344 16.242188 C 20.988281 16.527344 22.074219 17.519531 22.074219 18.703125 C 22.074219 19.171875 22.457031 19.550781 22.925781 19.550781 C 23.394531 19.550781 23.777344 19.171875 23.777344 18.703125 C 23.777344 16.601562 21.933594 14.855469 19.527344 14.515625 L 19.527344 14.453125 C 19.527344 13.984375 19.144531 13.601562 18.675781 13.601562 C 18.207031 13.601562 17.824219 13.984375 17.824219 14.453125 L 17.824219 14.515625 C 15.417969 14.855469 13.578125 16.601562 13.578125 18.703125 C 13.578125 20.804688 15.417969 22.550781 17.824219 22.890625 L 17.824219 27.960938 C 16.363281 27.675781 15.277344 26.6875 15.277344 25.503906 Z M 22.074219 25.503906 C 22.074219 26.6875 20.988281 27.675781 19.527344 27.960938 L 19.527344 23.042969 C 20.988281 23.328125 22.074219 24.316406 22.074219 25.503906 Z M 15.277344 18.703125 C 15.277344 17.519531 16.363281 16.527344 17.824219 16.242188 L 17.824219 21.160156 C 16.363281 20.875 15.277344 19.886719 15.277344 18.703125 Z M 15.277344 18.703125 "/>
<path style=" stroke:none;fill-rule:nonzero;fill:rgb(0%,0%,0%);fill-opacity:1;" d="M 14.425781 43.351562 C 14.652344 43.351562 14.867188 43.261719 15.027344 43.101562 L 21.226562 36.902344 L 24.875 40.550781 C 25.207031 40.882812 25.746094 40.882812 26.078125 40.550781 L 35.675781 30.953125 L 35.675781 32.300781 C 35.675781 32.769531 36.054688 33.152344 36.523438 33.152344 C 36.996094 33.152344 37.375 32.769531 37.375 32.300781 L 37.375 28.902344 C 37.371094 28.800781 37.351562 28.699219 37.316406 28.605469 C 37.304688 28.574219 37.292969 28.546875 37.277344 28.519531 C 37.246094 28.457031 37.203125 28.398438 37.15625 28.34375 C 37.140625 28.320312 37.117188 28.296875 37.097656 28.277344 C 37.03125 28.214844 36.957031 28.164062 36.875 28.125 C 36.867188 28.125 36.859375 28.117188 36.851562 28.113281 C 36.757812 28.078125 36.660156 28.058594 36.558594 28.054688 C 36.546875 28.054688 36.539062 28.050781 36.527344 28.050781 L 33.125 28.050781 C 32.65625 28.050781 32.273438 28.429688 32.273438 28.898438 C 32.273438 29.367188 32.65625 29.75 33.125 29.75 L 34.472656 29.75 L 25.476562 38.75 L 21.828125 35.101562 C 21.496094 34.769531 20.957031 34.769531 20.625 35.101562 L 13.824219 41.898438 C 13.582031 42.144531 13.507812 42.507812 13.640625 42.824219 C 13.773438 43.144531 14.082031 43.351562 14.425781 43.351562 Z M 14.425781 43.351562 "/>
<path style=" stroke:none;fill-rule:nonzero;fill:rgb(0%,0%,0%);fill-opacity:1;" d="M 19.527344 40.800781 C 19.058594 40.800781 18.675781 41.179688 18.675781 41.652344 L 18.675781 42.5 C 18.675781 42.96875 19.058594 43.351562 19.527344 43.351562 C 19.996094 43.351562 20.375 42.96875 20.375 42.5 L 20.375 41.652344 C 20.375 41.179688 19.996094 40.800781 19.527344 40.800781 Z M 19.527344 40.800781 "/>
<path style=" stroke:none;fill-rule:nonzero;fill:rgb(0%,0%,0%);fill-opacity:1;" d="M 22.925781 40.800781 C 22.457031 40.800781 22.074219 41.179688 22.074219 41.652344 L 22.074219 42.5 C 22.074219 42.96875 22.457031 43.351562 22.925781 43.351562 C 23.394531 43.351562 23.777344 42.96875 23.777344 42.5 L 23.777344 41.652344 C 23.777344 41.179688 23.394531 40.800781 22.925781 40.800781 Z M 22.925781 40.800781 "/>
<path style=" stroke:none;fill-rule:nonzero;fill:rgb(0%,0%,0%);fill-opacity:1;" d="M 28.027344 40.800781 C 27.554688 40.800781 27.175781 41.179688 27.175781 41.652344 L 27.175781 42.5 C 27.175781 42.96875 27.554688 43.351562 28.027344 43.351562 C 28.496094 43.351562 28.875 42.96875 28.875 42.5 L 28.875 41.652344 C 28.875 41.179688 28.496094 40.800781 28.027344 40.800781 Z M 28.027344 40.800781 "/>
<path style=" stroke:none;fill-rule:nonzero;fill:rgb(0%,0%,0%);fill-opacity:1;" d="M 31.425781 37.402344 C 30.957031 37.402344 30.574219 37.78125 30.574219 38.25 L 30.574219 42.5 C 30.574219 42.96875 30.957031 43.351562 31.425781 43.351562 C 31.894531 43.351562 32.273438 42.96875 32.273438 42.5 L 32.273438 38.25 C 32.273438 37.78125 31.894531 37.402344 31.425781 37.402344 Z M 31.425781 37.402344 "/>
<path style=" stroke:none;fill-rule:nonzero;fill:rgb(0%,0%,0%);fill-opacity:1;" d="M 34.824219 34 C 34.355469 34 33.976562 34.382812 33.976562 34.851562 L 33.976562 42.5 C 33.976562 42.96875 34.355469 43.351562 34.824219 43.351562 C 35.292969 43.351562 35.675781 42.96875 35.675781 42.5 L 35.675781 34.851562 C 35.675781 34.382812 35.292969 34 34.824219 34 Z M 34.824219 34 "/>
<path style=" stroke:none;fill-rule:nonzero;fill:rgb(0%,0%,0%);fill-opacity:1;" d="M 27.175781 17.851562 L 28.875 17.851562 C 29.34375 17.851562 29.726562 17.472656 29.726562 17.003906 C 29.726562 16.535156 29.34375 16.152344 28.875 16.152344 L 27.175781 16.152344 C 26.707031 16.152344 26.324219 16.535156 26.324219 17.003906 C 26.324219 17.472656 26.707031 17.851562 27.175781 17.851562 Z M 27.175781 17.851562 "/>
<path style=" stroke:none;fill-rule:nonzero;fill:rgb(0%,0%,0%);fill-opacity:1;" d="M 32.273438 17.851562 L 35.675781 17.851562 C 36.144531 17.851562 36.523438 17.472656 36.523438 17.003906 C 36.523438 16.535156 36.144531 16.152344 35.675781 16.152344 L 32.273438 16.152344 C 31.804688 16.152344 31.425781 16.535156 31.425781 17.003906 C 31.425781 17.472656 31.804688 17.851562 32.273438 17.851562 Z M 32.273438 17.851562 "/>
<path style=" stroke:none;fill-rule:nonzero;fill:rgb(0%,0%,0%);fill-opacity:1;" d="M 27.175781 24.652344 L 28.875 24.652344 C 29.34375 24.652344 29.726562 24.273438 29.726562 23.800781 C 29.726562 23.332031 29.34375 22.953125 28.875 22.953125 L 27.175781 22.953125 C 26.707031 22.953125 26.324219 23.332031 26.324219 23.800781 C 26.324219 24.273438 26.707031 24.652344 27.175781 24.652344 Z M 27.175781 24.652344 "/>
<path style=" stroke:none;fill-rule:nonzero;fill:rgb(0%,0%,0%);fill-opacity:1;" d="M 35.675781 22.953125 L 32.273438 22.953125 C 31.804688 22.953125 31.425781 23.332031 31.425781 23.800781 C 31.425781 24.273438 31.804688 24.652344 32.273438 24.652344 L 35.675781 24.652344 C 36.144531 24.652344 36.523438 24.273438 36.523438 23.800781 C 36.523438 23.332031 36.144531 22.953125 35.675781 22.953125 Z M 35.675781 22.953125 "/>
<path style=" stroke:none;fill-rule:nonzero;fill:rgb(0%,0%,0%);fill-opacity:1;" d="M 35.675781 19.550781 L 33.976562 19.550781 C 33.503906 19.550781 33.125 19.933594 33.125 20.402344 C 33.125 20.871094 33.503906 21.253906 33.976562 21.253906 L 35.675781 21.253906 C 36.144531 21.253906 36.523438 20.871094 36.523438 20.402344 C 36.523438 19.933594 36.144531 19.550781 35.675781 19.550781 Z M 35.675781 19.550781 "/>
<path style=" stroke:none;fill-rule:nonzero;fill:rgb(0%,0%,0%);fill-opacity:1;" d="M 27.175781 21.253906 L 30.574219 21.253906 C 31.042969 21.253906 31.425781 20.871094 31.425781 20.402344 C 31.425781 19.933594 31.042969 19.550781 30.574219 19.550781 L 27.175781 19.550781 C 26.707031 19.550781 26.324219 19.933594 26.324219 20.402344 C 26.324219 20.871094 26.707031 21.253906 27.175781 21.253906 Z M 27.175781 21.253906 "/>
</g>
</svg>
