<?xml version="1.0" encoding="UTF-8"?>
<svg xmlns="http://www.w3.org/2000/svg" xmlns:xlink="http://www.w3.org/1999/xlink" width="50pt" height="50pt" viewBox="0 0 50 50" version="1.1">
<g id="surface1">
<path style=" stroke:none;fill-rule:nonzero;fill:rgb(0%,0%,0%);fill-opacity:1;" d="M 35.496094 0 L 14.503906 0 C 12.480469 0 10.832031 1.648438 10.832031 3.671875 L 10.832031 46.328125 C 10.832031 48.351562 12.480469 50 14.503906 50 L 35.496094 50 C 37.519531 50 39.167969 48.351562 39.167969 46.328125 L 39.167969 3.671875 C 39.167969 1.648438 37.519531 0 35.496094 0 Z M 12.5 6.667969 L 37.5 6.667969 L 37.5 38.332031 L 12.5 38.332031 Z M 14.503906 1.667969 L 35.496094 1.667969 C 36.601562 1.667969 37.5 2.566406 37.5 3.671875 L 37.5 5 L 12.5 5 L 12.5 3.671875 C 12.5 2.566406 13.398438 1.667969 14.503906 1.667969 Z M 35.496094 48.332031 L 14.503906 48.332031 C 13.398438 48.332031 12.5 47.433594 12.5 46.328125 L 12.5 40 L 37.5 40 L 37.5 46.328125 C 37.5 47.433594 36.601562 48.332031 35.496094 48.332031 Z M 35.496094 48.332031 "/>
<path style=" stroke:none;fill-rule:nonzero;fill:rgb(0%,0%,0%);fill-opacity:1;" d="M 25 40.832031 C 23.160156 40.832031 21.667969 42.328125 21.667969 44.167969 C 21.667969 46.003906 23.160156 47.5 25 47.5 C 26.839844 47.5 28.332031 46.003906 28.332031 44.167969 C 28.332031 42.328125 26.839844 40.832031 25 40.832031 Z M 25 45.832031 C 24.082031 45.832031 23.332031 45.085938 23.332031 44.167969 C 23.332031 43.246094 24.082031 42.5 25 42.5 C 25.917969 42.5 26.667969 43.246094 26.667969 44.167969 C 26.667969 45.085938 25.917969 45.832031 25 45.832031 Z M 25 45.832031 "/>
<path style=" stroke:none;fill-rule:nonzero;fill:rgb(0%,0%,0%);fill-opacity:1;" d="M 21.667969 4.167969 L 25 4.167969 C 25.460938 4.167969 25.832031 3.792969 25.832031 3.332031 C 25.832031 2.871094 25.460938 2.5 25 2.5 L 21.667969 2.5 C 21.207031 2.5 20.832031 2.871094 20.832031 3.332031 C 20.832031 3.792969 21.207031 4.167969 21.667969 4.167969 Z M 21.667969 4.167969 "/>
<path style=" stroke:none;fill-rule:nonzero;fill:rgb(0%,0%,0%);fill-opacity:1;" d="M 27.5 4.167969 L 28.332031 4.167969 C 28.792969 4.167969 29.167969 3.792969 29.167969 3.332031 C 29.167969 2.871094 28.792969 2.5 28.332031 2.5 L 27.5 2.5 C 27.039062 2.5 26.667969 2.871094 26.667969 3.332031 C 26.667969 3.792969 27.039062 4.167969 27.5 4.167969 Z M 27.5 4.167969 "/>
<path style=" stroke:none;fill-rule:nonzero;fill:rgb(0%,0%,0%);fill-opacity:1;" d="M 47.175781 3.808594 C 46.851562 3.480469 46.324219 3.480469 46 3.808594 C 45.671875 4.132812 45.671875 4.660156 46 4.984375 C 49.113281 8.097656 49.113281 13.164062 46 16.277344 C 45.671875 16.605469 45.671875 17.132812 46 17.457031 C 46.160156 17.621094 46.375 17.703125 46.585938 17.703125 C 46.800781 17.703125 47.015625 17.621094 47.175781 17.457031 C 50.941406 13.695312 50.941406 7.570312 47.175781 3.808594 Z M 47.175781 3.808594 "/>
<path style=" stroke:none;fill-rule:nonzero;fill:rgb(0%,0%,0%);fill-opacity:1;" d="M 43.667969 5.703125 C 43.339844 5.378906 42.816406 5.378906 42.488281 5.703125 C 42.164062 6.03125 42.164062 6.558594 42.488281 6.882812 C 43.519531 7.914062 44.085938 9.285156 44.085938 10.75 C 44.085938 12.210938 43.519531 13.582031 42.488281 14.613281 C 42.164062 14.9375 42.164062 15.464844 42.488281 15.792969 C 42.652344 15.953125 42.863281 16.035156 43.078125 16.035156 C 43.292969 16.035156 43.503906 15.953125 43.667969 15.792969 C 45.011719 14.445312 45.753906 12.65625 45.753906 10.75 C 45.753906 8.839844 45.015625 7.050781 43.667969 5.703125 Z M 43.667969 5.703125 "/>
<path style=" stroke:none;fill-rule:nonzero;fill:rgb(0%,0%,0%);fill-opacity:1;" d="M 4 4.984375 C 4.328125 4.660156 4.328125 4.132812 4 3.808594 C 3.675781 3.480469 3.148438 3.480469 2.824219 3.808594 C -0.941406 7.570312 -0.941406 13.695312 2.824219 17.457031 C 2.984375 17.621094 3.199219 17.703125 3.414062 17.703125 C 3.625 17.703125 3.839844 17.621094 4 17.457031 C 4.328125 17.132812 4.328125 16.605469 4 16.277344 C 0.886719 13.164062 0.886719 8.101562 4 4.984375 Z M 4 4.984375 "/>
<path style=" stroke:none;fill-rule:nonzero;fill:rgb(0%,0%,0%);fill-opacity:1;" d="M 7.511719 5.472656 C 7.183594 5.148438 6.660156 5.148438 6.332031 5.472656 C 4.988281 6.820312 4.246094 8.609375 4.246094 10.515625 C 4.246094 12.425781 4.988281 14.214844 6.332031 15.5625 C 6.496094 15.722656 6.707031 15.804688 6.921875 15.804688 C 7.136719 15.804688 7.347656 15.722656 7.511719 15.5625 C 7.835938 15.234375 7.835938 14.710938 7.511719 14.382812 C 6.480469 13.351562 5.914062 11.980469 5.914062 10.515625 C 5.914062 9.054688 6.480469 7.683594 7.511719 6.652344 C 7.835938 6.328125 7.835938 5.800781 7.511719 5.472656 Z M 7.511719 5.472656 "/>
</g>
</svg>
