<?xml version="1.0" encoding="UTF-8"?>
<svg xmlns="http://www.w3.org/2000/svg" xmlns:xlink="http://www.w3.org/1999/xlink" width="121pt" height="36pt" viewBox="0 0 121 36" version="1.1">
<defs>
<linearGradient id="linear0" gradientUnits="userSpaceOnUse" x1="-23.235" y1="97.431" x2="-23.235" y2="61.386" gradientTransform="matrix(3.590051,0,0,3.60168,172.182893,-314.821256)">
<stop offset="0" style="stop-color:rgb(10.196078%,10.196078%,10.196078%);stop-opacity:0.101961;"/>
<stop offset="0.123" style="stop-color:rgb(12.941176%,12.941176%,12.941176%);stop-opacity:0.152941;"/>
<stop offset="0.308" style="stop-color:rgb(20.784314%,20.784314%,20.784314%);stop-opacity:0.227451;"/>
<stop offset="0.532" style="stop-color:rgb(34.117647%,34.117647%,34.117647%);stop-opacity:0.317647;"/>
<stop offset="0.783" style="stop-color:rgb(52.156863%,52.156863%,52.156863%);stop-opacity:0.419608;"/>
<stop offset="1" style="stop-color:rgb(70.196078%,70.196078%,70.196078%);stop-opacity:0.509804;"/>
</linearGradient>
</defs>
<g id="surface1">
<path style=" stroke:none;fill-rule:nonzero;fill:rgb(100%,100%,100%);fill-opacity:1;" d="M 120.230469 31.75 C 120.230469 32.664062 119.867188 33.542969 119.222656 34.1875 C 118.578125 34.835938 117.703125 35.199219 116.789062 35.195312 L 4.242188 35.195312 C 2.34375 35.199219 0.800781 33.65625 0.796875 31.75 L 0.796875 4.253906 C 0.800781 2.347656 2.339844 0.804688 4.242188 0.800781 L 116.789062 0.800781 C 118.6875 0.800781 120.230469 2.347656 120.226562 4.253906 Z M 120.230469 31.75 "/>
<path style=" stroke:none;fill-rule:nonzero;fill:rgb(65.098039%,65.098039%,65.098039%);fill-opacity:1;" d="M 116.789062 36 L 4.242188 36 C 1.902344 35.996094 0.00390625 34.097656 0 31.75 L 0 4.253906 C 0.00390625 1.90625 1.902344 0.00390625 4.242188 0 L 116.789062 0 C 119.128906 0.00390625 121.027344 1.90625 121.03125 4.253906 L 121.03125 31.75 C 121.03125 34.09375 119.125 36 116.789062 36 Z M 116.789062 36 "/>
<path style=" stroke:none;fill-rule:nonzero;fill:rgb(0%,0%,0%);fill-opacity:1;" d="M 120.230469 31.75 C 120.230469 32.664062 119.867188 33.542969 119.222656 34.1875 C 118.578125 34.835938 117.703125 35.199219 116.789062 35.195312 L 4.242188 35.195312 C 2.34375 35.199219 0.800781 33.65625 0.796875 31.75 L 0.796875 4.253906 C 0.800781 2.347656 2.339844 0.804688 4.242188 0.800781 L 116.789062 0.800781 C 118.6875 0.800781 120.230469 2.347656 120.226562 4.253906 Z M 120.230469 31.75 "/>
<path style=" stroke:none;fill-rule:nonzero;fill:rgb(100%,100%,100%);fill-opacity:1;" d="M 27.027344 17.808594 C 27 14.910156 29.394531 13.496094 29.503906 13.433594 C 28.148438 11.449219 26.046875 11.179688 25.308594 11.15625 C 23.542969 10.96875 21.832031 12.214844 20.933594 12.214844 C 20.015625 12.214844 18.632812 11.175781 17.140625 11.203125 C 15.21875 11.234375 13.425781 12.351562 12.441406 14.082031 C 10.40625 17.613281 11.921875 22.804688 13.871094 25.65625 C 14.84375 27.054688 15.984375 28.617188 17.472656 28.5625 C 18.929688 28.5 19.476562 27.628906 21.234375 27.628906 C 22.976562 27.628906 23.488281 28.5625 25.007812 28.527344 C 26.574219 28.5 27.558594 27.121094 28.496094 25.710938 C 29.625 24.109375 30.074219 22.53125 30.09375 22.449219 C 30.058594 22.4375 27.054688 21.285156 27.027344 17.808594 Z M 24.15625 9.277344 C 24.9375 8.292969 25.476562 6.957031 25.328125 5.597656 C 24.191406 5.648438 22.773438 6.386719 21.957031 7.347656 C 21.234375 8.195312 20.585938 9.585938 20.753906 10.894531 C 22.027344 10.988281 23.335938 10.246094 24.15625 9.277344 Z M 24.15625 9.277344 "/>
<path style=" stroke:none;fill-rule:nonzero;fill:url(#linear0);" d="M 116.789062 0 L 56.507812 0 L 80.117188 36 L 116.789062 36 C 119.128906 35.996094 121.027344 34.09375 121.03125 31.746094 L 121.03125 4.253906 C 121.027344 1.90625 119.132812 0.00390625 116.789062 0 Z M 116.789062 0 "/>
<path style=" stroke:none;fill-rule:nonzero;fill:rgb(100%,100%,100%);fill-opacity:1;" d="M 48.136719 28.359375 L 46.101562 28.359375 L 44.984375 24.839844 L 41.105469 24.839844 L 40.042969 28.359375 L 38.058594 28.359375 L 41.902344 16.382812 L 44.277344 16.382812 Z M 44.648438 23.367188 L 43.640625 20.238281 C 43.535156 19.917969 43.332031 19.164062 43.039062 17.980469 L 43.003906 17.980469 C 42.882812 18.488281 42.695312 19.242188 42.433594 20.238281 L 41.441406 23.367188 Z M 58.003906 23.933594 C 58.003906 25.40625 57.605469 26.566406 56.8125 27.417969 C 56.097656 28.175781 55.214844 28.554688 54.15625 28.554688 C 53.015625 28.554688 52.199219 28.148438 51.699219 27.332031 L 51.699219 31.863281 L 49.789062 31.863281 L 49.789062 22.5625 C 49.789062 21.640625 49.761719 20.691406 49.714844 19.722656 L 51.398438 19.722656 L 51.503906 21.089844 L 51.539062 21.089844 C 52.179688 20.058594 53.148438 19.542969 54.445312 19.542969 C 55.460938 19.542969 56.308594 19.945312 56.988281 20.753906 C 57.664062 21.558594 58.003906 22.621094 58.003906 23.933594 Z M 56.054688 24.003906 C 56.054688 23.164062 55.867188 22.472656 55.488281 21.925781 C 55.074219 21.355469 54.519531 21.074219 53.824219 21.074219 C 53.351562 21.074219 52.921875 21.230469 52.539062 21.542969 C 52.15625 21.859375 51.90625 22.269531 51.789062 22.78125 C 51.734375 22.96875 51.707031 23.167969 51.699219 23.363281 L 51.699219 24.804688 C 51.699219 25.433594 51.890625 25.960938 52.273438 26.394531 C 52.660156 26.828125 53.15625 27.046875 53.769531 27.046875 C 54.492188 27.046875 55.050781 26.765625 55.453125 26.210938 C 55.855469 25.652344 56.054688 24.917969 56.054688 24.003906 Z M 67.90625 23.933594 C 67.90625 25.40625 67.507812 26.566406 66.710938 27.417969 C 66 28.175781 65.113281 28.554688 64.058594 28.554688 C 62.917969 28.554688 62.097656 28.148438 61.597656 27.332031 L 61.597656 31.863281 L 59.6875 31.863281 L 59.6875 22.5625 C 59.6875 21.640625 59.664062 20.691406 59.617188 19.722656 L 61.296875 19.722656 L 61.40625 21.089844 L 61.441406 21.089844 C 62.078125 20.058594 63.046875 19.542969 64.34375 19.542969 C 65.359375 19.542969 66.207031 19.945312 66.886719 20.753906 C 67.5625 21.558594 67.90625 22.621094 67.90625 23.933594 Z M 65.957031 24.003906 C 65.957031 23.164062 65.765625 22.472656 65.386719 21.925781 C 64.972656 21.355469 64.421875 21.074219 63.722656 21.074219 C 63.253906 21.074219 62.824219 21.230469 62.4375 21.542969 C 62.054688 21.859375 61.804688 22.269531 61.6875 22.78125 C 61.628906 23.015625 61.597656 23.210938 61.597656 23.363281 L 61.597656 24.804688 C 61.597656 25.433594 61.789062 25.960938 62.171875 26.394531 C 62.554688 26.828125 63.054688 27.046875 63.671875 27.046875 C 64.390625 27.046875 64.953125 26.765625 65.351562 26.210938 C 65.753906 25.652344 65.957031 24.917969 65.957031 24.003906 Z M 78.972656 25 C 78.972656 26.019531 78.617188 26.847656 77.914062 27.488281 C 77.136719 28.1875 76.050781 28.539062 74.660156 28.539062 C 73.375 28.539062 72.347656 28.289062 71.570312 27.792969 L 72.011719 26.191406 C 72.851562 26.691406 73.773438 26.9375 74.773438 26.9375 C 75.496094 26.9375 76.054688 26.773438 76.457031 26.449219 C 76.859375 26.125 77.058594 25.6875 77.058594 25.144531 C 77.058594 24.65625 76.890625 24.25 76.5625 23.917969 C 76.230469 23.585938 75.683594 23.277344 74.917969 22.996094 C 72.828125 22.210938 71.78125 21.066406 71.78125 19.5625 C 71.78125 18.582031 72.148438 17.777344 72.886719 17.144531 C 73.625 16.519531 74.601562 16.203125 75.820312 16.203125 C 76.90625 16.203125 77.808594 16.394531 78.527344 16.773438 L 78.046875 18.335938 C 77.371094 17.96875 76.609375 17.785156 75.753906 17.785156 C 75.082031 17.785156 74.550781 17.953125 74.171875 18.285156 C 73.855469 18.582031 73.691406 18.941406 73.691406 19.371094 C 73.691406 19.84375 73.875 20.234375 74.242188 20.542969 C 74.558594 20.824219 75.140625 21.136719 75.976562 21.464844 C 77.003906 21.882812 77.761719 22.367188 78.246094 22.921875 C 78.730469 23.480469 78.972656 24.171875 78.972656 25 Z M 85.3125 21.164062 L 83.203125 21.164062 L 83.203125 25.355469 C 83.203125 26.421875 83.578125 26.957031 84.320312 26.957031 C 84.664062 26.957031 84.945312 26.925781 85.171875 26.867188 L 85.222656 28.324219 C 84.847656 28.464844 84.351562 28.535156 83.734375 28.535156 C 82.980469 28.535156 82.390625 28.304688 81.964844 27.84375 C 81.539062 27.378906 81.328125 26.605469 81.328125 25.511719 L 81.328125 21.160156 L 80.070312 21.160156 L 80.070312 19.71875 L 81.328125 19.71875 L 81.328125 18.136719 L 83.203125 17.570312 L 83.203125 19.71875 L 85.3125 19.71875 Z M 94.804688 23.96875 C 94.804688 25.296875 94.425781 26.386719 93.671875 27.242188 C 92.882812 28.117188 91.828125 28.554688 90.519531 28.554688 C 89.253906 28.554688 88.25 28.136719 87.5 27.296875 C 86.75 26.453125 86.375 25.394531 86.375 24.113281 C 86.375 22.777344 86.761719 21.679688 87.535156 20.828125 C 88.308594 19.972656 89.351562 19.546875 90.660156 19.546875 C 91.925781 19.546875 92.9375 19.96875 93.707031 20.808594 C 94.441406 21.625 94.804688 22.679688 94.804688 23.96875 Z M 92.824219 24.015625 C 92.824219 23.222656 92.652344 22.542969 92.308594 21.976562 C 91.910156 21.289062 91.335938 20.949219 90.589844 20.949219 C 89.824219 20.949219 89.238281 21.289062 88.839844 21.976562 C 88.496094 22.542969 88.324219 23.234375 88.324219 24.050781 C 88.324219 24.84375 88.496094 25.523438 88.839844 26.089844 C 89.25 26.773438 89.828125 27.117188 90.574219 27.117188 C 91.308594 27.117188 91.878906 26.769531 92.292969 26.074219 C 92.644531 25.492188 92.824219 24.808594 92.824219 24.015625 Z M 101.023438 21.410156 C 100.824219 21.375 100.625 21.355469 100.421875 21.355469 C 99.75 21.355469 99.226562 21.609375 98.863281 22.121094 C 98.542969 22.574219 98.386719 23.140625 98.386719 23.828125 L 98.386719 28.359375 L 96.472656 28.359375 L 96.472656 22.441406 C 96.472656 21.535156 96.457031 20.628906 96.417969 19.722656 L 98.082031 19.722656 L 98.152344 21.375 L 98.207031 21.375 C 98.410156 20.808594 98.726562 20.351562 99.160156 20.007812 C 99.5625 19.707031 100.046875 19.546875 100.542969 19.542969 C 100.722656 19.542969 100.878906 19.558594 101.023438 19.578125 Z M 109.578125 23.632812 C 109.582031 23.925781 109.558594 24.214844 109.507812 24.503906 L 103.769531 24.503906 C 103.792969 25.355469 104.070312 26.011719 104.601562 26.460938 C 105.085938 26.863281 105.710938 27.0625 106.480469 27.0625 C 107.328125 27.0625 108.101562 26.929688 108.800781 26.65625 L 109.101562 27.988281 C 108.285156 28.34375 107.324219 28.519531 106.214844 28.519531 C 104.878906 28.519531 103.832031 28.125 103.070312 27.339844 C 102.308594 26.550781 101.925781 25.492188 101.925781 24.167969 C 101.925781 22.867188 102.28125 21.78125 102.992188 20.917969 C 103.734375 19.992188 104.738281 19.53125 106 19.53125 C 107.242188 19.53125 108.179688 19.992188 108.816406 20.917969 C 109.324219 21.648438 109.578125 22.554688 109.578125 23.632812 Z M 107.753906 23.136719 C 107.765625 22.566406 107.640625 22.074219 107.382812 21.660156 C 107.050781 21.125 106.542969 20.859375 105.859375 20.859375 C 105.234375 20.859375 104.722656 21.117188 104.335938 21.640625 C 104.019531 22.054688 103.828125 22.554688 103.769531 23.132812 Z M 107.753906 23.136719 "/>
<path style=" stroke:none;fill-rule:nonzero;fill:rgb(100%,100%,100%);fill-opacity:1;" d="M 40.554688 12.144531 C 40.023438 12.144531 39.5625 12.121094 39.179688 12.074219 L 39.179688 6.285156 C 39.714844 6.199219 40.257812 6.160156 40.800781 6.160156 C 42.992188 6.160156 44.003906 7.246094 44.003906 9.007812 C 44.003906 11.046875 42.808594 12.144531 40.554688 12.144531 Z M 40.875 6.902344 C 40.582031 6.902344 40.328125 6.921875 40.121094 6.964844 L 40.121094 11.367188 C 40.230469 11.386719 40.449219 11.394531 40.753906 11.394531 C 42.191406 11.394531 43.007812 10.574219 43.007812 9.035156 C 43.007812 7.664062 42.269531 6.902344 40.875 6.902344 Z M 47.148438 12.191406 C 45.914062 12.191406 45.113281 11.261719 45.113281 10.007812 C 45.113281 8.695312 45.929688 7.761719 47.21875 7.761719 C 48.4375 7.761719 49.257812 8.644531 49.257812 9.9375 C 49.257812 11.261719 48.414062 12.191406 47.148438 12.191406 Z M 47.1875 8.449219 C 46.507812 8.449219 46.070312 9.085938 46.070312 9.980469 C 46.070312 10.851562 46.515625 11.492188 47.175781 11.492188 C 47.839844 11.492188 48.28125 10.808594 48.28125 9.960938 C 48.28125 9.097656 47.847656 8.449219 47.1875 8.449219 Z M 56.304688 7.847656 L 54.984375 12.09375 L 54.121094 12.09375 L 53.574219 10.25 C 53.4375 9.800781 53.324219 9.339844 53.234375 8.878906 L 53.214844 8.878906 C 53.144531 9.339844 53.015625 9.804688 52.875 10.25 L 52.292969 12.09375 L 51.421875 12.09375 L 50.175781 7.847656 L 51.144531 7.847656 L 51.621094 9.867188 C 51.734375 10.347656 51.828125 10.800781 51.910156 11.230469 L 51.925781 11.230469 C 51.996094 10.871094 52.109375 10.425781 52.273438 9.875 L 52.875 7.847656 L 53.640625 7.847656 L 54.214844 9.832031 C 54.355469 10.3125 54.46875 10.785156 54.558594 11.230469 L 54.582031 11.230469 C 54.644531 10.792969 54.738281 10.332031 54.867188 9.832031 L 55.382812 7.847656 Z M 61.175781 12.09375 L 60.238281 12.09375 L 60.238281 9.65625 C 60.238281 8.90625 59.949219 8.527344 59.382812 8.527344 C 58.828125 8.527344 58.445312 9.007812 58.445312 9.570312 L 58.445312 12.09375 L 57.503906 12.09375 L 57.503906 9.0625 C 57.503906 8.6875 57.496094 8.285156 57.46875 7.847656 L 58.296875 7.847656 L 58.339844 8.503906 L 58.367188 8.503906 C 58.617188 8.050781 59.132812 7.761719 59.707031 7.761719 C 60.59375 7.761719 61.175781 8.441406 61.175781 9.550781 Z M 63.769531 12.09375 L 62.828125 12.09375 L 62.828125 5.898438 L 63.769531 5.898438 Z M 67.195312 12.191406 C 65.960938 12.191406 65.160156 11.261719 65.160156 10.007812 C 65.160156 8.695312 65.976562 7.761719 67.265625 7.761719 C 68.484375 7.761719 69.304688 8.644531 69.304688 9.9375 C 69.304688 11.261719 68.457031 12.191406 67.195312 12.191406 Z M 67.230469 8.449219 C 66.550781 8.449219 66.117188 9.085938 66.117188 9.980469 C 66.117188 10.851562 66.5625 11.492188 67.222656 11.492188 C 67.882812 11.492188 68.328125 10.808594 68.328125 9.960938 C 68.328125 9.097656 67.894531 8.449219 67.230469 8.449219 Z M 73.007812 12.09375 L 72.941406 11.605469 L 72.917969 11.605469 C 72.628906 12 72.210938 12.191406 71.679688 12.191406 C 70.921875 12.191406 70.382812 11.65625 70.382812 10.941406 C 70.382812 9.894531 71.289062 9.351562 72.855469 9.351562 L 72.855469 9.273438 C 72.855469 8.714844 72.558594 8.433594 71.976562 8.433594 C 71.558594 8.433594 71.195312 8.539062 70.871094 8.75 L 70.679688 8.128906 C 71.070312 7.882812 71.558594 7.761719 72.132812 7.761719 C 73.238281 7.761719 73.796875 8.347656 73.796875 9.515625 L 73.796875 11.082031 C 73.796875 11.507812 73.816406 11.839844 73.855469 12.09375 Z M 72.878906 9.980469 C 71.835938 9.980469 71.3125 10.234375 71.3125 10.835938 C 71.3125 11.28125 71.582031 11.5 71.957031 11.5 C 72.433594 11.5 72.878906 11.132812 72.878906 10.632812 Z M 78.359375 12.09375 L 78.316406 11.410156 L 78.289062 11.410156 C 78.019531 11.925781 77.566406 12.191406 76.933594 12.191406 C 75.914062 12.191406 75.15625 11.289062 75.15625 10.023438 C 75.15625 8.695312 75.941406 7.761719 77.011719 7.761719 C 77.574219 7.761719 77.976562 7.953125 78.203125 8.335938 L 78.222656 8.335938 L 78.222656 5.898438 L 79.164062 5.898438 L 79.164062 10.949219 C 79.164062 11.359375 79.171875 11.746094 79.199219 12.09375 Z M 78.222656 9.59375 C 78.222656 9 77.828125 8.496094 77.230469 8.496094 C 76.535156 8.496094 76.109375 9.113281 76.109375 9.988281 C 76.109375 10.84375 76.550781 11.429688 77.210938 11.429688 C 77.804688 11.429688 78.222656 10.914062 78.222656 10.304688 Z M 85.128906 12.191406 C 83.894531 12.191406 83.09375 11.261719 83.09375 10.007812 C 83.09375 8.695312 83.910156 7.761719 85.199219 7.761719 C 86.417969 7.761719 87.234375 8.644531 87.234375 9.9375 C 87.238281 11.261719 86.394531 12.191406 85.128906 12.191406 Z M 85.164062 8.449219 C 84.484375 8.449219 84.050781 9.085938 84.050781 9.980469 C 84.050781 10.851562 84.496094 11.492188 85.15625 11.492188 C 85.816406 11.492188 86.261719 10.808594 86.261719 9.960938 C 86.261719 9.097656 85.828125 8.449219 85.164062 8.449219 Z M 92.292969 12.09375 L 91.351562 12.09375 L 91.351562 9.65625 C 91.351562 8.90625 91.0625 8.527344 90.496094 8.527344 C 89.941406 8.527344 89.558594 9.007812 89.558594 9.570312 L 89.558594 12.09375 L 88.617188 12.09375 L 88.617188 9.0625 C 88.617188 8.6875 88.609375 8.285156 88.582031 7.847656 L 89.410156 7.847656 L 89.453125 8.503906 L 89.480469 8.503906 C 89.730469 8.050781 90.246094 7.761719 90.820312 7.761719 C 91.707031 7.761719 92.292969 8.441406 92.292969 9.550781 Z M 98.617188 8.554688 L 97.582031 8.554688 L 97.582031 10.617188 C 97.582031 11.140625 97.761719 11.402344 98.128906 11.402344 C 98.296875 11.402344 98.433594 11.386719 98.546875 11.359375 L 98.574219 12.078125 C 98.390625 12.148438 98.148438 12.183594 97.84375 12.183594 C 97.101562 12.183594 96.660156 11.769531 96.660156 10.695312 L 96.660156 8.554688 L 96.042969 8.554688 L 96.042969 7.847656 L 96.660156 7.847656 L 96.660156 7.070312 L 97.582031 6.789062 L 97.582031 7.847656 L 98.617188 7.847656 Z M 103.59375 12.09375 L 102.652344 12.09375 L 102.652344 9.675781 C 102.652344 8.914062 102.367188 8.53125 101.800781 8.53125 C 101.3125 8.53125 100.859375 8.863281 100.859375 9.535156 L 100.859375 12.09375 L 99.921875 12.09375 L 99.921875 5.898438 L 100.859375 5.898438 L 100.859375 8.449219 L 100.878906 8.449219 C 101.175781 7.988281 101.605469 7.761719 102.152344 7.761719 C 103.046875 7.761719 103.59375 8.457031 103.59375 9.570312 Z M 108.691406 10.199219 L 105.871094 10.199219 C 105.886719 11 106.417969 11.457031 107.203125 11.457031 C 107.621094 11.457031 108.003906 11.386719 108.34375 11.253906 L 108.488281 11.910156 C 108.089844 12.085938 107.617188 12.171875 107.070312 12.171875 C 105.746094 12.171875 104.964844 11.332031 104.964844 10.03125 C 104.964844 8.730469 105.765625 7.753906 106.964844 7.753906 C 108.046875 7.753906 108.722656 8.554688 108.722656 9.769531 C 108.730469 9.914062 108.71875 10.058594 108.691406 10.199219 Z M 107.828125 9.523438 C 107.828125 8.871094 107.5 8.40625 106.898438 8.40625 C 106.359375 8.40625 105.933594 8.878906 105.871094 9.523438 Z M 107.828125 9.523438 "/>
</g>
</svg>
