<?xml version="1.0" encoding="UTF-8"?>
<svg xmlns="http://www.w3.org/2000/svg" xmlns:xlink="http://www.w3.org/1999/xlink" width="15pt" height="15pt" viewBox="0 0 15 15" version="1.1">
<g id="surface1">
<path style=" stroke:none;fill-rule:nonzero;fill:rgb(1.176471%,60.784314%,89.803922%);fill-opacity:1;" d="M 7.5 1.5625 C 4.222656 1.5625 1.5625 4.222656 1.5625 7.5 C 1.5625 10.777344 4.222656 13.4375 7.5 13.4375 C 10.777344 13.4375 13.4375 10.777344 13.4375 7.5 C 13.4375 4.222656 10.777344 1.5625 7.5 1.5625 Z M 7.5 1.5625 "/>
<path style=" stroke:none;fill-rule:nonzero;fill:rgb(100%,100%,100%);fill-opacity:1;" d="M 8.304688 9.074219 L 9.839844 9.074219 L 10.082031 7.511719 L 8.304688 7.511719 L 8.304688 6.660156 C 8.304688 6.011719 8.515625 5.4375 9.121094 5.4375 L 10.097656 5.4375 L 10.097656 4.074219 C 9.925781 4.050781 9.5625 4 8.878906 4 C 7.449219 4 6.613281 4.753906 6.613281 6.472656 L 6.613281 7.511719 L 5.144531 7.511719 L 5.144531 9.074219 L 6.613281 9.074219 L 6.613281 13.363281 C 6.902344 13.40625 7.199219 13.4375 7.5 13.4375 C 7.773438 13.4375 8.039062 13.414062 8.304688 13.375 Z M 8.304688 9.074219 "/>
</g>
</svg>
