<?xml version="1.0" encoding="UTF-8"?>
<svg xmlns="http://www.w3.org/2000/svg" xmlns:xlink="http://www.w3.org/1999/xlink" width="15pt" height="15pt" viewBox="0 0 15 15" version="1.1">
<g id="surface1">
<path style=" stroke:none;fill-rule:nonzero;fill:rgb(94.901961%,94.901961%,94.901961%);fill-opacity:1;" d="M 14.207031 3.597656 L 13.25 13.214844 L 1.75 13.214844 L 0.976562 3.785156 L 7.5 7.4375 Z M 14.207031 3.597656 "/>
<path style=" stroke:none;fill-rule:nonzero;fill:rgb(94.901961%,94.901961%,94.901961%);fill-opacity:1;" d="M 13.882812 1.785156 L 7.5 7.78125 L 1.117188 1.785156 Z M 13.882812 1.785156 "/>
<path style=" stroke:none;fill-rule:nonzero;fill:rgb(94.509804%,26.27451%,21.176471%);fill-opacity:1;" d="M 1.75 4.554688 L 1.75 13.214844 L 0.707031 13.214844 C 0.316406 13.214844 0 12.898438 0 12.507812 L 0 3.28125 L 1.140625 3.3125 Z M 1.75 4.554688 "/>
<path style=" stroke:none;fill-rule:nonzero;fill:rgb(82.745098%,18.039216%,16.470588%);fill-opacity:1;" d="M 15 3.28125 L 15 12.507812 C 15 12.898438 14.683594 13.214844 14.292969 13.214844 L 13.25 13.214844 L 13.25 4.554688 L 13.828125 3.191406 Z M 15 3.28125 "/>
<path style=" stroke:none;fill-rule:nonzero;fill:rgb(94.509804%,26.27451%,21.176471%);fill-opacity:1;" d="M 15 2.492188 L 15 3.28125 L 13.25 4.554688 L 7.5 8.746094 L 1.75 4.554688 L 0 3.28125 L 0 2.492188 C 0 2.101562 0.316406 1.785156 0.707031 1.785156 L 1.117188 1.785156 L 7.5 6.4375 L 13.882812 1.785156 L 14.292969 1.785156 C 14.683594 1.785156 15 2.101562 15 2.492188 Z M 15 2.492188 "/>
<path style=" stroke:none;fill-rule:nonzero;fill:rgb(82.745098%,18.039216%,16.470588%);fill-opacity:1;" d="M 1.75 4.554688 L 0 4.285156 L 0 3.28125 Z M 1.75 4.554688 "/>
</g>
</svg>
