<?xml version="1.0" encoding="UTF-8"?>
<svg xmlns="http://www.w3.org/2000/svg" xmlns:xlink="http://www.w3.org/1999/xlink" width="256pt" height="256pt" viewBox="0 0 256 256" version="1.1">
<g id="surface1">
<path style=" stroke:none;fill-rule:nonzero;fill:rgb(90.980392%,90.980392%,90.980392%);fill-opacity:1;" d="M 243 128 C 243 191.511719 191.511719 243 128 243 C 64.488281 243 13 191.511719 13 128 C 13 64.488281 64.488281 13 128 13 C 191.402344 13.265625 242.734375 64.597656 243 128 Z M 243 128 "/>
<path style=" stroke:none;fill-rule:nonzero;fill:rgb(80.392157%,80.392157%,80.392157%);fill-opacity:1;" d="M 114.6875 98.542969 C 114.6875 108.3125 106.765625 116.234375 96.992188 116.234375 C 87.222656 116.234375 79.300781 108.3125 79.300781 98.542969 C 79.300781 88.769531 87.222656 80.851562 96.992188 80.851562 C 106.765625 80.851562 114.6875 88.769531 114.6875 98.542969 Z M 114.6875 98.542969 "/>
<path style=" stroke:none;fill-rule:nonzero;fill:rgb(80.392157%,80.392157%,80.392157%);fill-opacity:1;" d="M 240.800781 150.480469 C 238.558594 161.769531 234.628906 172.660156 229.140625 182.78125 C 221.8125 182.03125 215.71875 176.820312 213.835938 169.703125 C 211.953125 162.582031 214.671875 155.042969 220.671875 150.765625 C 226.667969 146.492188 234.683594 146.378906 240.800781 150.480469 Z M 240.800781 150.480469 "/>
<path style=" stroke:none;fill-rule:nonzero;fill:rgb(80.392157%,80.392157%,80.392157%);fill-opacity:1;" d="M 123.703125 172.945312 C 123.703125 182.714844 115.78125 190.636719 106.011719 190.636719 C 96.238281 190.636719 88.316406 182.714844 88.316406 172.945312 C 88.316406 163.171875 96.238281 155.253906 106.011719 155.253906 C 115.78125 155.253906 123.703125 163.171875 123.703125 172.945312 Z M 123.703125 172.945312 "/>
<path style=" stroke:none;fill-rule:nonzero;fill:rgb(80.392157%,80.392157%,80.392157%);fill-opacity:1;" d="M 174.371094 184.945312 C 174.371094 191.570312 169 196.945312 162.371094 196.945312 C 155.746094 196.945312 150.371094 191.570312 150.371094 184.945312 C 150.371094 178.316406 155.746094 172.945312 162.371094 172.945312 C 169 172.945312 174.371094 178.316406 174.371094 184.945312 Z M 174.371094 184.945312 "/>
<path style=" stroke:none;fill-rule:nonzero;fill:rgb(80.392157%,80.392157%,80.392157%);fill-opacity:1;" d="M 188.382812 104.585938 C 188.382812 111.210938 183.011719 116.585938 176.382812 116.585938 C 169.757812 116.585938 164.382812 111.210938 164.382812 104.585938 C 164.382812 97.957031 169.757812 92.585938 176.382812 92.585938 C 183.011719 92.585938 188.382812 97.957031 188.382812 104.585938 Z M 188.382812 104.585938 "/>
<path style=" stroke:none;fill-rule:nonzero;fill:rgb(80.392157%,80.392157%,80.392157%);fill-opacity:1;" d="M 172.359375 75.753906 C 172.359375 79.066406 169.671875 81.753906 166.359375 81.753906 C 163.042969 81.753906 160.359375 79.066406 160.359375 75.753906 C 160.359375 72.441406 163.042969 69.753906 166.359375 69.753906 C 169.671875 69.753906 172.359375 72.441406 172.359375 75.753906 Z M 172.359375 75.753906 "/>
<path style=" stroke:none;fill-rule:nonzero;fill:rgb(17.647059%,11.372549%,25.098039%);fill-opacity:1;" d="M 228.285156 79.199219 C 228.820312 80.34375 229.929688 81.109375 231.191406 81.203125 C 232.449219 81.296875 233.660156 80.707031 234.363281 79.65625 C 235.0625 78.605469 235.144531 77.261719 234.574219 76.132812 C 233.335938 73.585938 231.976562 71.054688 230.574219 68.613281 C 229.601562 66.949219 227.464844 66.386719 225.800781 67.355469 C 224.132812 68.324219 223.5625 70.457031 224.523438 72.125 C 225.847656 74.421875 227.117188 76.800781 228.285156 79.199219 Z M 228.285156 79.199219 "/>
<path style=" stroke:none;fill-rule:nonzero;fill:rgb(17.647059%,11.372549%,25.098039%);fill-opacity:1;" d="M 246.5 128 C 246.515625 114.589844 244.25 101.277344 239.800781 88.628906 C 239.160156 86.808594 237.160156 85.851562 235.339844 86.492188 C 233.515625 87.132812 232.558594 89.132812 233.199219 90.953125 C 237.382812 102.855469 239.515625 115.382812 239.5 128 C 239.496094 133.777344 239.042969 139.542969 238.152344 145.253906 C 227.144531 141.28125 215 146.984375 211.03125 157.992188 C 207.058594 169 212.765625 181.144531 223.773438 185.113281 C 198.726562 227.101562 149.25 247.875 101.734375 236.355469 C 54.222656 224.832031 19.757812 183.699219 16.726562 134.902344 C 13.699219 86.105469 42.8125 41.027344 88.535156 23.71875 C 134.257812 6.40625 185.925781 20.902344 215.972656 59.46875 C 217.167969 60.972656 219.347656 61.230469 220.863281 60.050781 C 222.375 58.871094 222.65625 56.691406 221.492188 55.164062 C 189.273438 13.832031 133.730469 -1.425781 84.917969 17.644531 C 36.105469 36.714844 5.617188 85.585938 9.953125 137.8125 C 14.289062 190.039062 52.417969 233.214844 103.707031 243.976562 C 154.996094 254.738281 207.261719 230.527344 232.222656 184.449219 C 233.640625 181.835938 234.953125 179.179688 236.164062 176.480469 C 239.800781 168.371094 242.511719 159.878906 244.242188 151.164062 C 245.746094 143.535156 246.503906 135.777344 246.5 128 Z M 216.761719 165.179688 C 216.757812 160.351562 219.207031 155.855469 223.265625 153.238281 C 227.328125 150.625 232.4375 150.253906 236.828125 152.257812 C 236.789062 152.4375 236.753906 152.617188 236.710938 152.796875 C 236.257812 154.796875 235.753906 156.777344 235.191406 158.734375 C 235.09375 159.085938 234.992188 159.429688 234.878906 159.777344 C 233.664062 163.875 232.210938 167.898438 230.53125 171.828125 C 230.382812 172.171875 230.242188 172.515625 230.09375 172.855469 C 229.269531 174.722656 228.398438 176.566406 227.472656 178.390625 L 227.21875 178.878906 C 221.03125 177.214844 216.734375 171.589844 216.761719 165.179688 Z M 216.761719 165.179688 "/>
<path style=" stroke:none;fill-rule:nonzero;fill:rgb(17.647059%,11.372549%,25.098039%);fill-opacity:1;" d="M 42.710938 64.285156 C 33.261719 76.921875 26.730469 91.5 23.585938 106.960938 C 23.203125 108.859375 24.433594 110.703125 26.328125 111.085938 C 26.554688 111.132812 26.789062 111.15625 27.023438 111.152344 C 28.6875 111.152344 30.121094 109.976562 30.449219 108.34375 C 33.386719 93.898438 39.488281 80.285156 48.3125 68.480469 C 49.472656 66.933594 49.160156 64.738281 47.613281 63.578125 C 46.066406 62.421875 43.875 62.734375 42.714844 64.28125 Z M 42.710938 64.285156 "/>
<path style=" stroke:none;fill-rule:nonzero;fill:rgb(17.647059%,11.372549%,25.098039%);fill-opacity:1;" d="M 69.414062 39.097656 C 65.503906 41.683594 61.769531 44.523438 58.226562 47.597656 C 56.769531 48.867188 56.617188 51.082031 57.886719 52.539062 C 59.15625 54 61.367188 54.152344 62.828125 52.882812 C 66.136719 50.007812 69.628906 47.355469 73.28125 44.9375 C 74.863281 43.859375 75.285156 41.714844 74.230469 40.117188 C 73.175781 38.519531 71.035156 38.066406 69.425781 39.097656 Z M 69.414062 39.097656 "/>
<path style=" stroke:none;fill-rule:nonzero;fill:rgb(17.647059%,11.372549%,25.098039%);fill-opacity:1;" d="M 79.914062 92.738281 C 78.996094 92.613281 78.066406 92.859375 77.328125 93.421875 C 76.589844 93.984375 76.105469 94.816406 75.980469 95.738281 C 74.679688 105.503906 80.285156 114.882812 89.503906 118.359375 C 98.722656 121.839844 109.121094 118.503906 114.597656 110.3125 C 120.074219 102.121094 119.179688 91.234375 112.441406 84.046875 C 105.703125 76.859375 94.898438 75.265625 86.371094 80.199219 C 85.257812 80.8125 84.566406 81.976562 84.558594 83.246094 C 84.550781 84.511719 85.226562 85.6875 86.332031 86.3125 C 87.433594 86.9375 88.789062 86.917969 89.875 86.257812 C 95.117188 83.214844 101.714844 83.835938 106.300781 87.804688 C 110.882812 91.773438 112.4375 98.214844 110.175781 103.839844 C 107.910156 109.464844 102.328125 113.03125 96.269531 112.71875 C 90.214844 112.40625 85.027344 108.285156 83.355469 102.457031 C 82.808594 100.574219 82.660156 98.601562 82.921875 96.65625 C 83.167969 94.746094 81.828125 92.992188 79.914062 92.738281 Z M 79.914062 92.738281 "/>
<path style=" stroke:none;fill-rule:nonzero;fill:rgb(17.647059%,11.372549%,25.098039%);fill-opacity:1;" d="M 106.011719 194.136719 C 117.71875 194.136719 127.210938 184.644531 127.210938 172.9375 C 127.210938 161.226562 117.71875 151.734375 106.011719 151.734375 C 94.300781 151.734375 84.808594 161.226562 84.808594 172.9375 C 84.820312 184.640625 94.304688 194.128906 106.011719 194.136719 Z M 106.011719 158.753906 C 113.851562 158.753906 120.210938 165.109375 120.210938 172.953125 C 120.210938 180.792969 113.851562 187.152344 106.011719 187.152344 C 98.167969 187.152344 91.808594 180.792969 91.808594 172.953125 C 91.808594 165.109375 98.167969 158.753906 106.011719 158.753906 Z M 106.011719 158.753906 "/>
<path style=" stroke:none;fill-rule:nonzero;fill:rgb(17.647059%,11.372549%,25.098039%);fill-opacity:1;" d="M 146.871094 184.945312 C 146.871094 193.503906 153.8125 200.445312 162.371094 200.445312 C 170.933594 200.445312 177.871094 193.503906 177.871094 184.945312 C 177.871094 176.382812 170.933594 169.445312 162.371094 169.445312 C 153.816406 169.453125 146.878906 176.386719 146.871094 184.945312 Z M 162.371094 176.445312 C 167.066406 176.445312 170.871094 180.25 170.871094 184.945312 C 170.871094 189.636719 167.066406 193.445312 162.371094 193.445312 C 157.675781 193.445312 153.871094 189.636719 153.871094 184.945312 C 153.878906 180.25 157.679688 176.449219 162.371094 176.445312 Z M 162.371094 176.445312 "/>
<path style=" stroke:none;fill-rule:nonzero;fill:rgb(17.647059%,11.372549%,25.098039%);fill-opacity:1;" d="M 191.882812 104.585938 C 191.882812 96.023438 184.945312 89.085938 176.382812 89.085938 C 167.824219 89.085938 160.882812 96.023438 160.882812 104.585938 C 160.882812 113.144531 167.824219 120.085938 176.382812 120.085938 C 184.941406 120.074219 191.875 113.140625 191.882812 104.585938 Z M 176.382812 113.085938 C 171.691406 113.085938 167.882812 109.277344 167.882812 104.585938 C 167.882812 99.890625 171.691406 96.085938 176.382812 96.085938 C 181.078125 96.085938 184.882812 99.890625 184.882812 104.585938 C 184.878906 109.277344 181.074219 113.078125 176.382812 113.085938 Z M 176.382812 113.085938 "/>
<path style=" stroke:none;fill-rule:nonzero;fill:rgb(17.647059%,11.372549%,25.098039%);fill-opacity:1;" d="M 175.859375 75.753906 C 175.859375 70.503906 171.605469 66.253906 166.359375 66.253906 C 161.109375 66.253906 156.859375 70.503906 156.859375 75.753906 C 156.859375 81 161.109375 85.253906 166.359375 85.253906 C 171.601562 85.246094 175.851562 80.996094 175.859375 75.753906 Z M 163.859375 75.753906 C 163.859375 74.371094 164.976562 73.253906 166.359375 73.253906 C 167.738281 73.253906 168.859375 74.371094 168.859375 75.753906 C 168.859375 77.132812 167.738281 78.253906 166.359375 78.253906 C 164.976562 78.25 163.859375 77.132812 163.859375 75.753906 Z M 163.859375 75.753906 "/>
</g>
</svg>
