<?xml version="1.0" encoding="UTF-8"?>
<svg xmlns="http://www.w3.org/2000/svg" xmlns:xlink="http://www.w3.org/1999/xlink" width="50pt" height="50pt" viewBox="0 0 50 50" version="1.1">
<g id="surface1">
<path style=" stroke:none;fill-rule:nonzero;fill:rgb(0%,0%,0%);fill-opacity:1;" d="M 19.34375 38.007812 L 7.917969 38.007812 C 7.292969 38.007812 6.789062 38.515625 6.789062 39.140625 C 6.789062 39.765625 7.292969 40.273438 7.917969 40.273438 L 19.34375 40.273438 C 19.96875 40.273438 20.476562 39.765625 20.476562 39.140625 C 20.476562 38.515625 19.96875 38.007812 19.34375 38.007812 Z M 19.34375 38.007812 "/>
<path style=" stroke:none;fill-rule:nonzero;fill:rgb(0%,0%,0%);fill-opacity:1;" d="M 36.425781 38.007812 L 25 38.007812 C 24.375 38.007812 23.867188 38.515625 23.867188 39.140625 C 23.867188 39.765625 24.375 40.273438 25 40.273438 L 36.425781 40.273438 C 37.050781 40.273438 37.554688 39.765625 37.554688 39.140625 C 37.554688 38.515625 37.050781 38.007812 36.425781 38.007812 Z M 36.425781 38.007812 "/>
<path style=" stroke:none;fill-rule:nonzero;fill:rgb(0%,0%,0%);fill-opacity:1;" d="M 36.425781 9.726562 L 7.917969 9.726562 C 7.292969 9.726562 6.789062 10.234375 6.789062 10.859375 C 6.789062 11.484375 7.292969 11.992188 7.917969 11.992188 L 36.425781 11.992188 C 37.050781 11.992188 37.554688 11.484375 37.554688 10.859375 C 37.554688 10.234375 37.050781 9.726562 36.425781 9.726562 Z M 36.425781 9.726562 "/>
<path style=" stroke:none;fill-rule:nonzero;fill:rgb(0%,0%,0%);fill-opacity:1;" d="M 36.425781 15.382812 L 25 15.382812 C 24.375 15.382812 23.867188 15.890625 23.867188 16.515625 C 23.867188 17.140625 24.375 17.648438 25 17.648438 L 36.425781 17.648438 C 37.050781 17.648438 37.554688 17.140625 37.554688 16.515625 C 37.554688 15.890625 37.050781 15.382812 36.425781 15.382812 Z M 36.425781 15.382812 "/>
<path style=" stroke:none;fill-rule:nonzero;fill:rgb(0%,0%,0%);fill-opacity:1;" d="M 36.425781 21.039062 L 25 21.039062 C 24.375 21.039062 23.867188 21.546875 23.867188 22.171875 C 23.867188 22.796875 24.375 23.304688 25 23.304688 L 36.425781 23.304688 C 37.050781 23.304688 37.554688 22.796875 37.554688 22.171875 C 37.554688 21.546875 37.050781 21.039062 36.425781 21.039062 Z M 36.425781 21.039062 "/>
<path style=" stroke:none;fill-rule:nonzero;fill:rgb(0%,0%,0%);fill-opacity:1;" d="M 36.425781 26.695312 L 25 26.695312 C 24.375 26.695312 23.867188 27.203125 23.867188 27.828125 C 23.867188 28.453125 24.375 28.960938 25 28.960938 L 36.425781 28.960938 C 37.050781 28.960938 37.554688 28.453125 37.554688 27.828125 C 37.554688 27.203125 37.050781 26.695312 36.425781 26.695312 Z M 36.425781 26.695312 "/>
<path style=" stroke:none;fill-rule:nonzero;fill:rgb(0%,0%,0%);fill-opacity:1;" d="M 36.425781 32.351562 L 25 32.351562 C 24.375 32.351562 23.867188 32.859375 23.867188 33.484375 C 23.867188 34.109375 24.375 34.617188 25 34.617188 L 36.425781 34.617188 C 37.050781 34.617188 37.554688 34.109375 37.554688 33.484375 C 37.554688 32.859375 37.050781 32.351562 36.425781 32.351562 Z M 36.425781 32.351562 "/>
<path style=" stroke:none;fill-rule:nonzero;fill:rgb(0%,0%,0%);fill-opacity:1;" d="M 19.34375 32.351562 L 7.917969 32.351562 C 7.292969 32.351562 6.789062 32.859375 6.789062 33.484375 C 6.789062 34.109375 7.292969 34.617188 7.917969 34.617188 L 19.34375 34.617188 C 19.96875 34.617188 20.476562 34.109375 20.476562 33.484375 C 20.476562 32.859375 19.96875 32.351562 19.34375 32.351562 Z M 19.34375 32.351562 "/>
<path style=" stroke:none;fill-rule:nonzero;fill:rgb(0%,0%,0%);fill-opacity:1;" d="M 19.34375 15.382812 L 7.917969 15.382812 C 7.292969 15.382812 6.789062 15.890625 6.789062 16.515625 L 6.789062 27.941406 C 6.789062 28.566406 7.292969 29.074219 7.917969 29.074219 L 19.34375 29.074219 C 19.96875 29.074219 20.476562 28.566406 20.476562 27.941406 L 20.476562 16.515625 C 20.476562 15.890625 19.96875 15.382812 19.34375 15.382812 Z M 18.210938 26.808594 L 9.050781 26.808594 L 9.050781 17.648438 L 18.210938 17.648438 Z M 18.210938 26.808594 "/>
<path style=" stroke:none;fill-rule:nonzero;fill:rgb(0%,0%,0%);fill-opacity:1;" d="M 47.738281 8.597656 L 44.34375 8.597656 L 44.34375 5.203125 C 44.34375 3.957031 43.328125 2.941406 42.082031 2.941406 L 2.261719 2.941406 C 1.015625 2.941406 0 3.957031 0 5.203125 L 0 41.402344 C 0 44.523438 2.539062 47.058594 5.65625 47.058594 L 44.34375 47.058594 C 47.460938 47.058594 50 44.523438 50 41.402344 L 50 10.859375 C 50 9.613281 48.984375 8.597656 47.738281 8.597656 Z M 47.738281 41.402344 C 47.738281 43.273438 46.214844 44.796875 44.34375 44.796875 L 5.65625 44.796875 C 3.785156 44.796875 2.261719 43.273438 2.261719 41.402344 L 2.261719 5.203125 L 42.082031 5.203125 L 42.082031 39.707031 C 42.082031 41.265625 43.351562 42.535156 44.910156 42.535156 C 45.535156 42.535156 46.039062 42.027344 46.039062 41.402344 C 46.039062 40.777344 45.535156 40.273438 44.910156 40.273438 C 44.597656 40.273438 44.34375 40.019531 44.34375 39.707031 L 44.34375 10.859375 L 47.738281 10.859375 Z M 47.738281 41.402344 "/>
</g>
</svg>
